<svg width="122" height="40" viewBox="0 0 122 40" fill="none" xmlns="http://www.w3.org/2000/svg">
<g clip-path="url(#clip0_1034_182)">
<path d="M23.4712 30.0906C22.3843 30.4627 21.2191 30.6683 20.0049 30.6683C15.9119 30.6683 12.3672 28.3672 10.5753 24.989H6.32556C8.24478 30.2669 13.1309 34.1151 18.9669 34.5263L23.481 40.0098V30.0906H23.4712Z" fill="#00BB98"/>
<path d="M21.5128 20.0049C21.5128 19.1726 20.8371 18.4871 19.995 18.4871C19.1627 18.4871 18.4773 19.1628 18.4773 20.0049C18.4773 20.847 19.1529 21.5226 19.995 21.5226C20.8371 21.5128 21.5128 20.8372 21.5128 20.0049Z" fill="#00BB98"/>
<path d="M28.426 20.0049C28.426 19.1726 27.7504 18.4871 26.9082 18.4871C26.0759 18.4871 25.3905 19.1628 25.3905 20.0049C25.3905 20.847 26.0661 21.5226 26.9082 21.5226C27.7504 21.5128 28.426 20.8372 28.426 20.0049Z" fill="#00BB98"/>
<path d="M14.5997 20.0049C14.5997 19.1726 13.9241 18.4871 13.082 18.4871C12.2496 18.4871 11.5642 19.1628 11.5642 20.0049C11.5642 20.847 12.2399 21.5226 13.082 21.5226C13.9241 21.5128 14.5997 20.8372 14.5997 20.0049Z" fill="#00BB98"/>
<path d="M16.5288 9.90942C17.6157 9.53733 18.781 9.3317 19.9951 9.3317C24.0882 9.3317 27.6328 11.6328 29.4248 15.011H33.6745C31.7552 9.74296 26.8691 5.89474 21.0429 5.48348L16.5288 0V9.90942Z" fill="#FD4C5C"/>
<path d="M9.90942 23.4713C9.53733 22.3844 9.3317 21.2192 9.3317 20.005C9.3317 15.912 11.6328 12.3673 15.011 10.5754V6.32568C9.74296 8.2449 5.89474 13.1311 5.48348 18.9573L0 23.4713H9.90942Z" fill="#FD4C5C"/>
<path d="M30.0906 16.5288C30.4627 17.6157 30.6683 18.7809 30.6683 19.9951C30.6683 24.0881 28.3672 27.6328 24.989 29.4247V33.6744C30.2571 31.7552 34.1151 26.869 34.5263 21.0331L40.0098 16.519H30.0906V16.5288Z" fill="#00BB98"/>
</g>
<path d="M52.6859 28H55.8099V15.504H60.4519V12.666H48.0439V15.504H52.6859V28Z" fill="#111B19"/>
<path d="M66.087 16.912C64.899 16.912 63.755 17.638 63.271 18.87V17.154H60.257V28H63.249V22.742C63.249 20.762 64.019 19.86 65.405 19.86C65.933 19.86 66.439 20.014 66.769 20.234L68.199 17.572C67.473 17.11 66.813 16.912 66.087 16.912Z" fill="#111B19"/>
<path d="M69.215 15.372H72.295V12.666H69.215V15.372ZM69.259 28H72.251V17.154H69.259V28Z" fill="#111B19"/>
<path d="M81.0008 16.912C79.9668 16.912 78.8008 17.242 78.0308 18.078V17.154H75.0388V32.488H78.0308V27.032C78.7128 27.78 79.8788 28.242 81.0008 28.242C83.5088 28.242 85.5108 26.218 85.5108 22.588C85.5108 19.376 83.9268 16.912 81.0008 16.912ZM80.2088 25.624C78.4488 25.624 77.7448 24.282 77.7448 22.566C77.7448 20.828 78.4048 19.53 80.2528 19.53C81.7928 19.53 82.5408 20.564 82.5408 22.566C82.5408 24.568 81.7708 25.624 80.2088 25.624Z" fill="#111B19"/>
<path d="M94.8263 19.596V22.39H98.1923V22.61C98.1923 24.238 96.8943 25.404 94.5183 25.404C91.6803 25.404 89.8103 23.732 89.8103 20.322C89.8103 17.044 91.5263 15.218 94.2543 15.218C96.1683 15.218 97.6863 16.142 98.3463 17.968L101.206 16.846C100.04 13.854 97.4003 12.27 94.2983 12.27C89.7443 12.27 86.7083 15.724 86.7083 20.388C86.7083 25.096 89.8103 28.374 94.2983 28.374C96.2343 28.374 97.8183 27.758 98.7643 26.46L99.1163 28H101.294V19.596H94.8263Z" fill="#111B19"/>
<path d="M108.424 28.242C111.834 28.242 113.924 25.58 113.924 22.566C113.924 19.53 111.856 16.912 108.424 16.912C104.97 16.912 102.924 19.53 102.924 22.566C102.924 25.58 104.992 28.242 108.424 28.242ZM108.424 25.624C106.51 25.624 105.894 24.106 105.894 22.566C105.894 20.982 106.532 19.508 108.424 19.508C110.338 19.508 110.954 20.982 110.954 22.566C110.954 24.128 110.316 25.624 108.424 25.624Z" fill="#111B19"/>
<path d="M116.258 28H119.14V25.008H116.258V28Z" fill="#111B19"/>
<defs>
<clipPath id="clip0_1034_182">
<rect width="40" height="40" fill="white"/>
</clipPath>
</defs>
</svg>
